<svg width="907" height="907" viewBox="0 0 907 907" fill="none" xmlns="http://www.w3.org/2000/svg">
<path fill-rule="evenodd" clip-rule="evenodd" d="M9.08984 453.5C9.08984 208.045 208.065 9.07007 453.501 9.07007C698.938 9.07007 897.913 208.045 897.913 453.5C897.913 698.955 698.938 897.93 453.501 897.93C208.065 897.93 9.08984 698.955 9.08984 453.5ZM684.688 85.1971C678.874 81.5492 649.643 64.5589 640.227 60.05V60.0685C608.311 44.7264 571.377 37.2266 554.276 88.6601C533.851 150.065 520.786 195.388 520.573 211.554C520.444 222.517 521.962 242.349 546.035 260.904C548.693 262.969 562.239 270.858 565.127 272.08C593.552 284.172 611.774 275.552 621.283 269.941C635.19 261.738 668.069 227.85 711.206 179.629C750.871 135.307 717.085 105.511 684.688 85.1971ZM641.727 500.6C635.921 489.703 632.005 477.351 630.264 463.38H630.311C629.533 457.13 629.625 438.547 630.449 432.315C632.042 420.168 635.264 409.178 639.986 399.372C629.44 392.854 619.82 384.095 611.293 372.836C607.515 367.836 598.256 351.726 595.811 345.865C591.415 335.473 588.669 324.458 587.673 313.218C575.451 312.736 562.961 309.912 550.174 304.487C544.378 302.042 528.351 292.653 523.314 288.774C513.592 281.274 505.685 272.978 499.583 263.941C488.639 269.802 476.214 273.774 462.168 275.506C455.918 276.274 437.335 276.191 431.113 275.367C419.169 273.793 408.382 270.645 398.688 266.043C392.3 276.163 383.846 285.395 373.087 293.607C368.069 297.413 351.949 306.755 346.144 309.181C334.422 314.107 322.931 316.931 311.71 317.699C311.367 329.884 308.701 342.374 303.414 355.124C300.997 360.929 291.766 377.095 287.951 382.141C280.387 392.141 271.97 400.289 262.804 406.557C268.48 417.223 272.359 429.26 274.155 442.852C274.989 449.102 275.072 467.685 274.294 473.925C272.748 486.425 269.535 497.73 264.702 507.786C275.007 514.146 284.424 522.646 292.812 533.525C296.664 538.525 306.053 554.571 308.515 560.376C313.348 571.765 316.182 582.959 317.089 593.875C329.015 594.356 341.237 597.07 353.727 602.245C359.541 604.68 375.671 613.911 380.679 617.726C390.753 625.365 398.938 633.837 405.216 643.077C415.901 637.337 428.011 633.429 441.668 631.633C447.937 630.791 466.491 630.716 472.741 631.494C484.963 633.022 496 636.142 505.87 640.8C512.416 630.541 521.082 621.189 532.138 612.912C537.137 609.152 553.313 599.968 559.174 597.542H559.201C570.618 592.875 581.812 590.181 592.756 589.449C593.126 577.005 595.904 564.237 601.45 551.173C603.857 545.405 613.255 529.312 617.107 524.266C624.542 514.582 632.773 506.711 641.736 500.6H641.727ZM468.76 18.9215C461.909 18.6716 428.085 18.6716 417.697 19.4679C382.356 22.1991 346.672 34.2636 357.68 87.3177C370.819 150.695 382.235 196.481 390.179 210.554C395.531 220.128 406.818 236.498 436.955 240.479C440.289 240.915 455.946 240.942 459.075 240.572C489.76 236.776 501.185 220.193 506.592 210.545C514.499 196.462 525.943 150.704 539.073 87.3173C551.165 29.0879 506.972 20.2643 468.76 18.9215ZM259.822 64.2904C250.406 68.7347 221.055 85.54 215.222 89.1694L215.203 89.1415C182.686 109.27 148.743 138.89 188.168 183.444C231.046 231.933 263.693 265.951 277.581 274.247C287.062 279.922 305.21 288.635 333.737 276.691C336.635 275.487 350.218 267.636 352.884 265.608C377.05 247.183 378.717 227.369 378.624 216.406C378.513 200.268 365.699 154.853 345.616 93.3358C328.811 41.8284 291.849 49.0782 259.822 64.2904ZM90.3556 214.471C84.4485 223.063 67.5511 252.368 64.3102 258.405V258.432C46.348 292.191 31.8947 334.847 88.3649 353.55C149.789 373.882 195.139 386.882 211.305 387.067C222.333 387.178 242.397 385.604 261.073 360.938C262.943 358.429 270.767 344.837 272.035 341.735C283.692 313.644 275.137 295.681 269.554 286.246C261.35 272.339 227.444 239.526 179.131 196.435C138.687 160.371 110.392 185.24 90.3465 214.471H90.3556ZM19.4877 428.214C18.6728 438.612 18.6913 472.444 18.9228 479.286L18.8952 479.24C20.247 517.48 29.0613 561.663 87.319 549.58C150.696 536.47 196.463 525.025 210.556 517.082C220.194 511.683 236.768 500.23 240.573 469.574C240.962 466.454 240.916 450.76 240.48 447.454C236.499 417.316 220.111 406.057 210.546 400.668C196.463 392.761 150.706 381.317 87.3186 368.188C34.2649 357.198 22.2003 392.872 19.4877 428.214ZM65.2731 649.197C69.7823 658.586 86.7261 687.844 90.365 693.659L90.3465 693.705C110.67 726.102 140.465 759.907 184.806 720.26C233.046 677.122 266.933 644.29 275.137 630.383C280.776 620.856 289.396 602.69 277.304 574.209C276.072 571.311 268.183 557.775 266.137 555.127C247.601 531.025 227.759 529.479 216.796 529.609C200.63 529.822 155.307 542.84 93.8835 563.246C42.45 580.32 49.931 617.226 65.2731 649.197ZM213.926 816.322C222.518 822.248 251.767 839.191 257.813 842.423C291.553 860.459 334.218 874.977 352.995 818.535C373.43 757.129 386.494 711.806 386.698 695.64C386.837 684.585 385.263 664.521 360.643 645.846C358.153 643.929 344.57 636.105 341.468 634.809C313.376 623.143 295.414 631.643 285.97 637.226C272.035 645.466 239.184 679.289 196.028 727.51C159.891 767.916 184.714 796.23 213.926 816.313L213.926 816.322ZM428.243 887.588C438.632 888.384 472.473 888.384 479.306 888.144C517.518 886.792 561.711 877.986 549.628 819.738C536.489 756.351 525.073 710.575 517.129 696.501C511.731 686.863 500.305 670.289 469.621 666.475C466.519 666.095 450.807 666.132 447.501 666.567C417.364 670.558 406.077 686.937 400.698 696.511C392.79 710.594 381.346 756.351 368.208 819.738C357.217 872.792 392.901 884.847 428.243 887.588ZM656.235 838.247C662.272 835.081 691.642 818.275 700.262 812.415L700.234 812.442C729.557 792.517 754.547 764.314 718.632 723.732C675.772 675.252 643.106 641.216 629.218 632.92C619.802 627.309 601.876 618.689 573.747 630.207C570.646 631.458 557.035 639.235 554.526 641.105C529.786 659.642 528.101 679.706 528.193 690.761C528.305 706.927 541.119 752.315 561.201 813.831C579.673 870.403 622.403 856.098 656.235 838.247ZM822.193 684.178C825.813 678.335 842.748 649.086 847.248 639.67C862.571 607.699 869.997 570.765 818.545 553.738C757.103 533.396 711.752 520.424 695.586 520.22C684.642 520.081 664.809 521.655 646.273 545.757C644.236 548.405 636.357 561.96 635.144 564.858C623.079 593.32 631.718 611.514 637.356 621.013C645.588 634.948 679.485 667.734 727.78 710.825C772.167 750.426 801.925 716.594 822.193 684.169V684.178ZM888.126 468.759C888.357 461.907 888.357 428.084 887.552 417.686V417.668C884.821 382.326 872.784 346.624 819.702 357.642C756.343 370.771 710.585 382.188 696.503 390.123C686.92 395.53 670.55 406.789 666.559 436.936C666.133 440.269 666.087 455.945 666.467 459.046C670.281 489.74 686.855 501.156 696.494 506.591C710.567 514.498 756.343 525.942 819.702 539.081C877.96 551.164 886.784 506.971 888.126 468.759ZM837.211 248.877C833.97 242.831 817.036 213.554 811.138 204.962L811.11 204.943C791.018 175.731 762.732 150.88 722.308 187C674.068 230.137 640.18 262.96 631.977 276.876C626.412 286.329 617.885 304.301 629.533 332.365C630.829 335.467 638.653 349.078 640.551 351.559C659.217 376.206 679.281 377.78 690.346 377.642C706.512 377.438 751.853 364.42 813.258 344.013C869.728 325.254 855.201 282.626 837.211 248.877ZM313.691 453.5C313.691 376.299 376.282 313.69 453.501 313.69C530.703 313.69 593.312 376.299 593.312 453.5C593.312 530.701 530.721 593.311 453.501 593.311C376.282 593.311 313.691 530.701 313.691 453.5ZM351.245 453.5C351.245 509.98 397.031 555.756 453.501 555.756C509.981 555.756 555.757 509.971 555.757 453.5C555.757 397.021 509.972 351.244 453.501 351.244C397.022 351.244 351.245 397.03 351.245 453.5ZM334.533 669.428C316.872 659.191 294.257 665.2 284.007 682.854C279.377 690.854 278.275 707.464 277.063 725.852C275.59 748.111 273.942 772.953 265.655 788.221C277.563 773.203 296.858 759.999 313.978 748.287C329.44 737.704 343.116 728.343 347.986 719.954C358.218 702.293 352.21 679.682 334.561 669.428H334.533ZM566.72 715.306C556.568 697.588 562.703 674.995 580.423 664.845L580.451 664.873C598.162 654.729 620.742 660.864 630.884 678.576C635.458 686.585 636.468 703.205 637.579 721.575C638.931 743.852 640.43 768.721 648.643 784.027C636.819 768.934 617.598 755.62 600.543 743.805C585.155 733.149 571.535 723.714 566.72 715.306ZM326.32 242.266C344.04 232.117 350.176 209.523 340.024 191.805C335.44 183.796 321.617 174.509 306.321 164.232C287.812 151.797 267.156 137.908 258.11 123.085C265.119 140.908 266.859 164.213 268.415 184.898C269.813 203.582 271.054 220.128 275.868 228.535C286.008 246.265 308.604 252.414 326.329 242.266H326.32ZM192.408 568.256C210.082 558.032 232.697 564.062 242.934 581.727C253.172 599.395 247.149 622.017 229.481 632.254C221.101 637.096 204.584 638.42 185.927 639.911C165.242 641.559 141.928 643.429 124.123 650.54C138.9 641.42 152.687 620.671 165.029 602.088C175.214 586.746 184.427 572.885 192.408 568.256ZM664.189 325.504C674.429 343.166 697.041 349.194 714.715 338.976C723.104 334.115 732.483 320.431 743.075 304.977C754.788 287.876 767.991 268.589 783 256.692C767.741 264.978 742.881 266.599 720.622 268.062C702.243 269.265 685.633 270.358 677.642 274.978C659.974 285.215 653.951 307.837 664.189 325.504ZM186.797 348.365C204.471 358.581 227.08 352.547 237.314 334.884C247.546 317.218 241.523 294.604 223.861 284.367C215.87 279.737 199.259 278.654 180.89 277.45C158.622 275.987 133.771 274.358 118.512 266.08C133.512 277.978 146.715 297.255 158.437 314.357C169.029 329.819 178.408 343.504 186.797 348.365ZM572.674 237.702C590.334 247.939 612.95 241.93 623.2 224.276C628.051 215.888 629.385 199.37 630.884 180.704C632.551 160.028 634.431 136.723 641.551 118.918C632.422 133.686 611.681 147.454 593.099 159.787C577.747 169.972 563.868 179.185 559.22 187.176C548.983 204.836 554.992 227.452 572.646 237.702H572.674ZM485.306 170.046C485.311 190.465 468.763 207.021 448.344 207.026C427.931 207.011 411.392 190.459 411.392 170.046C411.392 160.815 418.771 145.881 426.947 129.372C436.826 109.391 447.863 87.0768 448.353 69.7255C451.113 88.6786 461.177 109.78 470.112 128.501C478.167 145.399 485.306 160.361 485.306 170.046ZM699.966 448.352C699.955 468.766 716.504 485.319 736.918 485.314C746.603 485.314 761.556 478.185 778.454 470.12C797.185 461.185 818.295 451.121 837.266 448.361C819.915 447.871 797.611 436.834 777.62 426.955C761.102 418.779 746.168 411.4 736.918 411.4C716.508 411.394 699.96 427.942 699.966 448.352ZM170.075 495.869C198.525 495.869 216.306 465.072 202.081 440.434C195.48 429 183.278 421.955 170.075 421.955C160.835 421.955 145.9 429.343 129.373 437.51C109.392 447.399 87.0875 458.426 69.7453 458.917C88.7078 461.685 109.818 471.75 128.54 480.675C145.446 488.731 160.4 495.869 170.085 495.869H170.075ZM719.993 558.858C702.314 548.632 679.693 554.687 669.485 572.376C659.271 590.053 665.324 612.664 683.003 622.874C691.401 627.726 707.928 629.031 726.613 630.513C747.279 632.152 770.583 633.994 788.389 641.068C773.602 631.967 759.788 611.236 747.418 592.672C737.214 577.339 727.974 563.487 719.993 558.858ZM421.947 736.945C421.952 716.531 438.495 699.98 458.909 699.964C479.334 699.964 495.893 716.52 495.898 736.945C495.898 746.63 488.759 761.592 480.686 778.49C471.76 797.202 461.696 818.303 458.909 837.266C458.446 819.923 447.4 797.6 437.511 777.61C429.336 761.101 421.956 746.176 421.956 736.945H421.947Z" fill="#0F172A"/>
</svg>
