<svg width="1030" height="16" viewBox="0 0 1030 16" fill="none" xmlns="http://www.w3.org/2000/svg">
<circle cx="473" cy="8" r="7.5" fill="#0F172A" stroke="#94A3B8"/>
<path d="M509 8C509 12.4183 505.418 16 501 16C496.582 16 493 12.4183 493 8C493 3.58172 496.582 0 501 0C505.418 0 509 3.58172 509 8Z" fill="#94A3B8"/>
<path d="M537 8C537 12.4183 533.418 16 529 16C524.582 16 521 12.4183 521 8C521 3.58172 524.582 0 529 0C533.418 0 537 3.58172 537 8Z" fill="#94A3B8"/>
<path d="M565 8C565 12.4183 561.418 16 557 16C552.582 16 549 12.4183 549 8C549 3.58172 552.582 0 557 0C561.418 0 565 3.58172 565 8Z" fill="#94A3B8"/>
</svg>
