<svg width="32" height="19" viewBox="0 0 32 19" fill="none" xmlns="http://www.w3.org/2000/svg">
<path d="M27.1184 1.12201C27.7767 1.6334 27.3095 2.12514 26.1417 2.12514C24.8889 2.12514 23.2964 4.80011 23.2964 6.84567C23.2964 7.86846 23.445 7.92746 25.6321 7.92746C31.896 7.92746 34.1255 12.884 29.6452 16.8571C23.2751 22.5217 14.3995 15.1065 17.542 6.74733C19.1558 2.51852 24.719 -0.746538 27.1184 1.12201Z" fill="#D1962B"/>
<path d="M1.37972 5.74364C3.14211 2.30159 8.9389 -0.707814 11.2959 0.570664C11.9541 0.924705 11.6993 1.25914 10.0855 2.20324C6.9854 4.03245 6.02989 7.04181 8.55669 7.04181C15.6488 7.04181 17.39 16.3254 10.6589 18.253C2.59004 20.5543 -2.63344 13.5129 1.37972 5.74364Z" fill="#D1962B"/>
</svg>
