<svg width="33" height="19" viewBox="0 0 33 19" fill="none" xmlns="http://www.w3.org/2000/svg">
<path d="M27.8997 1.12201C28.5579 1.6334 28.0908 2.12514 26.9229 2.12514C25.6701 2.12514 24.0776 4.80011 24.0776 6.84567C24.0776 7.86846 24.2263 7.92746 26.4133 7.92746C32.6773 7.92746 34.9068 12.884 30.4265 16.8571C24.0564 22.5217 15.1807 15.1065 18.3233 6.74733C19.9371 2.51852 25.5003 -0.746538 27.8997 1.12201Z" fill="#D1962B"/>
<path d="M2.16097 5.74364C3.92336 2.30159 9.72015 -0.707814 12.0771 0.570664C12.7354 0.924705 12.4806 1.25914 10.8668 2.20324C7.76665 4.03245 6.81114 7.04181 9.33794 7.04181C16.43 7.04181 18.1712 16.3254 11.4401 18.253C3.37129 20.5543 -1.85219 13.5129 2.16097 5.74364Z" fill="#D1962B"/>
</svg>
