<svg width="33" height="19" viewBox="0 0 33 19" fill="none" xmlns="http://www.w3.org/2000/svg">
<path d="M27.3411 1.12201C27.9993 1.6334 27.5322 2.12514 26.3643 2.12514C25.1115 2.12514 23.519 4.80011 23.519 6.84567C23.519 7.86846 23.6677 7.92746 25.8547 7.92746C32.1187 7.92746 34.3482 12.884 29.8679 16.8571C23.4978 22.5217 14.6221 15.1065 17.7647 6.74733C19.3785 2.51852 24.9417 -0.746538 27.3411 1.12201Z" fill="#D1962B"/>
<path d="M1.60628 5.74364C3.36867 2.30159 9.16546 -0.707814 11.5225 0.570664C12.1807 0.924705 11.9259 1.25914 10.3121 2.20324C7.21197 4.03245 6.25645 7.04181 8.78326 7.04181C15.8753 7.04181 17.6165 16.3254 10.8855 18.253C2.8166 20.5543 -2.40688 13.5129 1.60628 5.74364Z" fill="#D1962B"/>
</svg>
