<svg width="19" height="19" viewBox="0 0 19 19" fill="none" xmlns="http://www.w3.org/2000/svg">
<g opacity="0.6">
<path d="M9.50002 1.7117C12.0366 1.7117 12.3371 1.72139 13.3388 1.7671C14.2651 1.80933 14.7681 1.9641 15.1028 2.0942C15.5463 2.26653 15.8627 2.47239 16.1951 2.80481C16.5276 3.13726 16.7335 3.45372 16.9058 3.89716C17.0359 4.23191 17.1907 4.73493 17.2329 5.66116C17.2786 6.6629 17.2883 6.96337 17.2883 9.49995C17.2883 12.0366 17.2786 12.337 17.2329 13.3388C17.1907 14.265 17.0359 14.768 16.9058 15.1028C16.7335 15.5462 16.5276 15.8627 16.1952 16.1951C15.8627 16.5275 15.5463 16.7334 15.1028 16.9057C14.7681 17.0358 14.2651 17.1906 13.3388 17.2328C12.3372 17.2785 12.0368 17.2882 9.50002 17.2882C6.96321 17.2882 6.66281 17.2785 5.66118 17.2328C4.73494 17.1906 4.23193 17.0358 3.89717 16.9057C3.45374 16.7334 3.13727 16.5275 2.80485 16.1951C2.47244 15.8627 2.26654 15.5462 2.0942 15.1028C1.9641 14.768 1.80934 14.265 1.7671 13.3388C1.7214 12.337 1.71171 12.0366 1.71171 9.49995C1.71171 6.96337 1.7214 6.6629 1.7671 5.66116C1.80934 4.73493 1.9641 4.23191 2.0942 3.89716C2.26654 3.45372 2.4724 3.13726 2.80485 2.80485C3.13727 2.47239 3.45374 2.26653 3.89717 2.0942C4.23193 1.9641 4.73494 1.80933 5.66118 1.7671C6.66292 1.72139 6.9634 1.7117 9.50002 1.7117ZM9.50002 0C6.91995 0 6.59644 0.0109359 5.58316 0.0571686C4.572 0.103288 3.88141 0.263896 3.27714 0.498717C2.65243 0.741495 2.12264 1.06633 1.59447 1.59446C1.06633 2.12263 0.741498 2.65242 0.498756 3.27713C0.263897 3.8814 0.103289 4.57198 0.0571688 5.58314C0.010936 6.59641 0 6.91993 0 9.49995C0 12.08 0.010936 12.4035 0.0571688 13.4168C0.103289 14.428 0.263897 15.1185 0.498756 15.7228C0.741498 16.3475 1.06633 16.8773 1.59447 17.4055C2.12264 17.9336 2.65243 18.2584 3.27714 18.5012C3.88141 18.736 4.572 18.8966 5.58316 18.9428C6.59644 18.989 6.91995 18.9999 9.50002 18.9999C12.08 18.9999 12.4036 18.989 13.4168 18.9428C14.428 18.8966 15.1186 18.736 15.7229 18.5012C16.3476 18.2584 16.8774 17.9336 17.4055 17.4055C17.9337 16.8773 18.2585 16.3475 18.5013 15.7228C18.7361 15.1185 18.8967 14.428 18.9428 13.4168C18.9891 12.4035 19 12.08 19 9.49995C19 6.91993 18.9891 6.59641 18.9428 5.58314C18.8967 4.57198 18.7361 3.8814 18.5013 3.27713C18.2585 2.65242 17.9337 2.12263 17.4055 1.59446C16.8774 1.06633 16.3476 0.741495 15.7229 0.498717C15.1186 0.263896 14.428 0.103288 13.4168 0.0571686C12.4036 0.0109359 12.08 0 9.50002 0Z" fill="white"/>
<path d="M9.50339 4.62305C6.80911 4.62305 4.625 6.80715 4.625 9.50139C4.625 12.1957 6.80911 14.3798 9.50339 14.3798C12.1976 14.3798 14.3818 12.1957 14.3818 9.50139C14.3818 6.80715 12.1976 4.62305 9.50339 4.62305ZM9.50339 12.6681C7.75447 12.6681 6.33671 11.2503 6.33671 9.50139C6.33671 7.7525 7.75447 6.33475 9.50339 6.33475C11.2523 6.33475 12.67 7.7525 12.67 9.50139C12.67 11.2503 11.2523 12.6681 9.50339 12.6681Z" fill="white"/>
<path d="M15.7136 4.42713C15.7136 5.0567 15.2032 5.56711 14.5736 5.56711C13.944 5.56711 13.4336 5.0567 13.4336 4.42713C13.4336 3.79752 13.944 3.28711 14.5736 3.28711C15.2032 3.28711 15.7136 3.79752 15.7136 4.42713Z" fill="white"/>
</g>
</svg>
