<svg width="1440" height="707" viewBox="0 0 1440 707" fill="none" xmlns="http://www.w3.org/2000/svg">
<path opacity="0.05" fill-rule="evenodd" clip-rule="evenodd" d="M239.79 112.533C239.066 114.113 236.796 114.113 236.072 112.533C215.394 67.4095 185.1 28.8705 148.271 0.414752C147.922 0.145213 147.494 0 147.053 0H2C0.895431 0 0 0.895434 0 2V113.55C0 113.856 0.0705008 114.159 0.206111 114.434C26.0103 166.676 64.929 209.448 111.9 237.007C113.239 237.792 113.239 239.74 111.9 240.525C64.929 268.084 26.0103 310.856 0.206101 363.1C0.0704957 363.374 0 363.677 0 363.983V661.018C0 661.324 0.0702843 661.627 0.205893 661.901C7.94092 677.562 16.8544 692.371 26.8099 706.174C27.1844 706.694 27.7863 707 28.4266 707H105.442C107.317 707 108.177 704.634 106.762 703.404C68.2202 669.866 40.1278 621.631 28.987 566.08C28.7129 564.713 29.9011 563.503 31.2715 563.758C103.33 577.164 163.152 631.841 191.276 705.7C191.572 706.479 192.319 707 193.153 707H282.709C283.543 707 284.29 706.479 284.587 705.7C312.049 633.58 369.734 579.748 439.523 564.772C440.911 564.474 442.141 565.698 441.857 567.089C430.58 622.217 402.595 670.07 364.286 703.404C362.871 704.634 363.731 707 365.606 707H442.622C443.262 707 443.864 706.694 444.239 706.175C455.745 690.221 465.859 672.925 474.37 654.523C475.097 652.952 477.354 652.952 478.081 654.523C486.593 672.925 496.707 690.221 508.213 706.175C508.588 706.694 509.19 707 509.83 707H586.848C588.723 707 589.583 704.634 588.168 703.404C549.583 669.829 521.47 621.525 510.355 565.895C510.083 564.533 511.263 563.326 512.63 563.572C585.138 576.653 645.389 631.497 673.643 705.7C673.94 706.479 674.687 707 675.521 707H762.188C763.022 707 763.769 706.479 764.065 705.7C791.794 632.881 850.334 578.707 921.035 564.349C922.416 564.069 923.629 565.287 923.349 566.668C912.127 621.973 884.096 669.985 845.689 703.404C844.275 704.634 845.134 707 847.009 707H924.027C924.667 707 925.269 706.694 925.643 706.175C937.15 690.221 947.264 672.925 955.776 654.523C956.502 652.952 958.76 652.952 959.486 654.523C967.998 672.925 978.112 690.221 989.619 706.175C989.993 706.694 990.595 707 991.235 707H1068.25C1070.13 707 1070.99 704.634 1069.57 703.404C1031.07 669.904 1003 621.741 991.835 566.271C991.559 564.9 992.755 563.687 994.129 563.951C1065.74 577.677 1125.13 632.186 1153.12 705.7C1153.42 706.479 1154.17 707 1155 707H1244.55C1245.39 707 1246.14 706.479 1246.43 705.7C1274.03 633.23 1332.14 579.229 1402.39 564.559C1403.77 564.27 1404.99 565.491 1404.71 566.877C1393.46 622.092 1365.45 670.026 1327.09 703.404C1325.68 704.634 1326.54 707 1328.41 707H1405.43C1406.07 707 1406.67 706.694 1407.05 706.175C1419.26 689.247 1429.9 670.806 1438.72 651.139C1438.84 650.869 1439.23 650.869 1439.35 651.139C1439.5 651.474 1440 651.367 1440 650.999V374.002C1440 373.635 1439.5 373.527 1439.35 373.862C1439.23 374.132 1438.84 374.132 1438.72 373.862C1413.09 316.731 1372.12 269.953 1321.96 240.525C1320.62 239.74 1320.62 237.792 1321.96 237.007C1372.12 207.579 1413.09 160.802 1438.72 103.671C1438.84 103.401 1439.23 103.4 1439.35 103.67C1439.5 104.006 1440 103.898 1440 103.53V2C1440 0.895431 1439.1 0 1438 0H1290.66C1290.22 0 1289.79 0.145212 1289.44 0.414743C1252.61 28.8705 1222.31 67.4096 1201.64 112.533C1200.91 114.113 1198.64 114.113 1197.92 112.533C1177.24 67.4096 1146.95 28.8705 1110.12 0.414741C1109.77 0.14521 1109.34 0 1108.9 0H808.289C807.848 0 807.42 0.145225 807.071 0.414767C771.085 28.2198 741.336 65.6522 720.702 109.448C719.97 111.002 717.737 111.001 717.005 109.448C696.373 65.6521 666.625 28.2198 630.639 0.414764C630.29 0.145222 629.862 0 629.421 0H328.81C328.369 0 327.941 0.145212 327.592 0.414743C290.763 28.8705 260.469 67.4095 239.79 112.533ZM441.856 19.6263C442.141 18.2353 440.91 17.0074 439.522 17.3053C357.146 34.9828 291.633 106.797 272.783 198.924C272.498 200.315 273.728 201.543 275.116 201.245C357.493 183.567 423.009 111.753 441.856 19.6263ZM1317.34 525.492C1318.67 526.277 1318.67 528.225 1317.34 529.01C1267.87 558.036 1227.33 603.934 1201.64 660C1200.91 661.58 1198.64 661.58 1197.92 660C1172.23 603.934 1131.69 558.036 1082.22 529.01C1080.88 528.225 1080.88 526.277 1082.22 525.492C1131.69 496.469 1172.23 450.568 1197.92 394.505C1198.64 392.925 1200.91 392.925 1201.64 394.505C1227.33 450.568 1267.87 496.469 1317.34 525.492ZM720.702 656.914C719.971 658.467 717.736 658.467 717.005 656.914C691.253 602.252 651.298 557.502 602.74 529.01C601.402 528.225 601.402 526.277 602.74 525.492C651.298 497.004 691.253 452.254 717.005 397.589C717.736 396.036 719.971 396.035 720.702 397.589C746.457 452.254 786.409 497.004 834.97 525.492C836.308 526.277 836.308 528.225 834.97 529.01C786.409 557.502 746.457 602.252 720.702 656.914ZM355.491 525.492C356.829 526.277 356.829 528.225 355.491 529.01C306.02 558.036 265.483 603.934 239.791 660C239.067 661.58 236.796 661.58 236.072 660C210.38 603.934 169.842 558.036 120.372 529.01C119.034 528.225 119.034 526.277 120.372 525.492C169.842 496.469 210.38 450.568 236.072 394.505C236.796 392.925 239.067 392.925 239.791 394.505C265.483 450.568 306.02 496.469 355.491 525.492ZM1406.81 490.815C1408.09 491.051 1409.24 489.996 1409.12 488.7C1399.71 379.965 1326.46 292.493 1232.49 275.204C1231.21 274.968 1230.06 276.022 1230.17 277.319C1239.58 386.054 1312.83 473.525 1406.81 490.815ZM955.775 107.056C956.502 105.485 958.76 105.485 959.487 107.056C985.203 162.649 1025.54 208.162 1074.71 237.007C1076.05 237.792 1076.05 239.74 1074.71 240.525C1025.54 269.37 985.203 314.883 959.487 370.476C958.76 372.047 956.502 372.047 955.775 370.476C930.059 314.883 889.717 269.37 840.553 240.525C839.215 239.74 839.215 237.792 840.553 237.007C889.717 208.162 930.059 162.649 955.775 107.056ZM1169.43 276.801C1169.54 275.518 1168.41 274.471 1167.14 274.683C1071.59 290.687 996.82 379.102 987.497 489.217C987.388 490.499 988.516 491.547 989.785 491.335C1085.33 475.33 1160.11 386.918 1169.43 276.801ZM207.599 276.639C207.706 275.361 206.586 274.315 205.32 274.521C109.254 290.087 33.9701 378.809 24.6738 489.379C24.5664 490.657 25.6867 491.703 26.9524 491.498C123.018 475.93 198.303 387.21 207.599 276.639ZM270.666 275.388C269.383 275.145 268.225 276.202 268.338 277.503C277.787 385.772 350.525 472.922 443.975 490.629C445.258 490.872 446.416 489.815 446.303 488.514C436.853 380.248 364.117 293.097 270.666 275.388ZM478.082 370.476C477.355 372.047 475.096 372.047 474.37 370.476C448.654 314.883 408.312 269.37 359.148 240.525C357.809 239.74 357.809 237.792 359.148 237.007C408.312 208.162 448.654 162.65 474.37 107.056C475.096 105.486 477.355 105.486 478.082 107.057C503.797 162.65 544.14 208.162 593.304 237.007C594.642 237.792 594.642 239.74 593.304 240.525C544.14 269.37 503.798 314.882 478.082 370.476ZM925.429 490.995C926.705 491.223 927.848 490.171 927.737 488.879C918.359 379.743 844.684 291.993 750.26 275.054C749.091 274.845 748.005 275.707 747.927 276.891C747.907 277.188 747.887 277.485 747.867 277.782C747.86 277.887 747.861 277.993 747.87 278.098C757.602 386.854 831.2 474.179 925.429 490.995ZM689.74 276.254C689.664 275.084 688.602 274.222 687.443 274.405C590.989 289.651 515.325 378.617 506.066 489.535C505.96 490.808 507.072 491.852 508.334 491.654C604.445 476.606 679.972 388.367 689.839 278.098C689.849 277.993 689.85 277.887 689.843 277.782C689.807 277.273 689.773 276.764 689.74 276.254ZM685.688 200.118C685.96 201.48 684.78 202.691 683.413 202.445C597.834 187.005 529.331 113.391 510.356 18.4317C510.084 17.0699 511.264 15.8587 512.631 16.1053C598.21 31.5451 666.713 105.159 685.688 200.118ZM1234.58 199.138C1234.3 200.524 1235.52 201.749 1236.91 201.46C1319.83 184.144 1385.84 112.021 1404.71 19.4122C1404.99 18.0261 1403.77 16.801 1402.39 17.0902C1319.47 34.4066 1253.45 106.529 1234.58 199.138ZM1162.8 202.069C1164.17 202.332 1165.37 201.116 1165.09 199.744C1146.16 105.714 1078.65 32.6856 994.13 16.4813C992.756 16.2179 991.559 17.4345 991.836 18.806C1010.77 112.836 1078.27 185.865 1162.8 202.069ZM923.348 19.2041C923.629 17.8229 922.415 16.6007 921.034 16.8812C837.576 33.8316 771.064 106.26 752.174 199.346C751.894 200.727 753.107 201.949 754.488 201.669C837.946 184.719 904.458 112.291 923.348 19.2041ZM31.2725 16.2904C29.9021 16.0354 28.7137 17.2493 28.9878 18.616C47.9408 113.112 115.946 186.435 201 202.26C202.371 202.515 203.559 201.301 203.285 199.934C184.332 105.438 116.326 32.1149 31.2725 16.2904Z" fill="#1E293B"/>
</svg>
