<svg width="294" height="589" viewBox="0 0 294 589" fill="none" xmlns="http://www.w3.org/2000/svg">
<path opacity="0.04" fill-rule="evenodd" clip-rule="evenodd" d="M293.711 589C131.803 588.458 0.712524 457.02 0.712524 294.957C0.712524 132.894 131.803 1.4567 293.711 0.914768V7.33436C289.54 7.34005 286.114 7.37658 284.621 7.43103C259.342 8.3194 230.106 14.1573 238.105 52.6831C246.791 94.6213 254.362 124.896 259.593 134.213C263.17 140.596 270.729 151.568 291.028 154.079C291.523 154.138 292.492 154.182 293.711 154.21V177.48C291.762 177.423 290.083 177.328 288.982 177.193C279.69 176.047 271.47 173.419 264.23 169.541C260.193 175.52 254.962 181.009 248.531 185.971C245.199 188.538 234.596 194.75 230.761 196.367C222.302 199.957 214.039 201.825 205.954 202.144C205.294 209.58 203.478 216.868 200.57 223.743C198.952 227.621 192.827 238.28 190.328 241.589C184.686 249.038 178.322 254.833 171.346 259.145C174.47 265.633 176.601 272.904 177.655 280.941C178.2 285.064 178.261 297.359 177.746 301.494H177.777C176.626 310.738 174.035 318.91 170.194 326.12H170.188C176.117 330.163 181.563 335.37 186.481 341.778C189.029 345.116 195.247 355.763 196.839 359.58C200.508 368.223 202.346 376.671 202.591 384.904C209.831 385.388 217.236 387.171 224.789 390.258H224.807C228.685 391.863 239.386 397.94 242.693 400.427C250.007 405.904 255.74 412.091 260.071 418.879C266.601 415.797 273.902 413.733 281.987 412.722C284.299 412.434 289.154 412.323 293.711 412.378V435.716C289.936 435.659 285.343 435.708 284.051 435.866C263.752 438.39 256.193 449.355 252.622 455.732C247.367 465.044 239.814 495.33 231.123 537.268C223.129 575.807 252.365 581.632 277.644 582.527C279.911 582.607 286.669 582.646 293.711 582.6V589ZM293.711 535.781C292.215 540.408 291.246 544.839 291.138 548.865C289.295 536.319 282.637 522.358 276.732 509.977C271.39 498.798 266.668 488.898 266.668 482.49C266.671 468.977 277.626 458.023 291.138 458.023C292.007 458.024 292.865 458.07 293.711 458.159V535.781ZM293.711 387.454C243.088 386.915 202.223 345.7 202.223 294.957C202.223 244.215 243.1 203 293.711 202.461V227.31C256.815 227.847 227.068 257.925 227.068 294.957C227.068 331.984 256.81 362.067 293.711 362.605V387.454ZM293.711 131.486C282.311 129.404 273.672 119.419 273.675 107.418C273.675 101.018 278.386 91.1351 283.708 79.9718L283.727 79.9313C287.169 72.719 290.864 64.9729 293.711 57.2844V131.486ZM171.186 34.6425C164.957 37.6257 145.619 48.8668 141.772 51.2804C120.34 64.7207 97.9886 84.4339 124.23 113.759C152.767 145.663 174.519 168.083 183.719 173.511C190.009 177.223 202.064 182.927 220.869 174.926C222.78 174.117 231.741 168.898 233.499 167.532C249.425 155.256 250.429 142.134 250.344 134.881C250.203 124.185 241.56 94.1986 228.048 53.5715C216.734 19.5421 192.3 24.5041 171.186 34.6547V34.6425ZM131.47 532.423C137.172 536.3 156.602 547.419 160.596 549.514C182.978 561.325 211.246 570.789 223.466 533.36C236.752 492.659 245.229 462.63 245.303 451.934C245.364 444.62 244.249 431.345 227.882 419.081C226.222 417.843 217.218 412.698 215.166 411.871C196.557 404.25 184.699 409.953 178.469 413.666C169.281 419.154 147.671 441.673 119.317 473.749C95.5571 500.599 112.089 519.258 131.488 532.441L131.47 532.423ZM34.2303 418.131C37.2072 424.361 48.4105 443.713 50.8053 447.579V447.573C64.2139 469.026 83.9004 491.41 113.265 465.209C145.215 436.699 167.64 415.007 173.085 405.788C176.815 399.503 182.53 387.465 174.549 368.634C173.747 366.716 168.534 357.748 167.186 355.996C154.924 340.05 141.803 339.009 134.563 339.101C123.868 339.236 93.8665 347.818 53.2189 361.277C19.1803 372.542 24.0929 396.979 34.2303 418.131ZM7.5668 271.262C7.034 278.142 7.03397 300.52 7.1871 305.053C8.07516 330.335 13.9125 359.574 52.4532 351.579C94.3688 342.887 124.652 335.315 133.963 330.084C140.339 326.488 151.304 318.934 153.827 298.627C154.078 296.575 154.048 286.204 153.766 283.998C151.126 264.052 140.296 256.603 133.957 253.025C124.64 247.776 94.3688 240.222 52.4532 231.536C17.3368 224.246 9.37363 247.867 7.5668 271.25V271.262ZM58.119 130.519C54.2173 136.204 43.014 155.574 40.8702 159.575C28.9687 181.904 19.3582 210.107 56.7164 222.518C97.3394 236.02 127.335 244.633 138.03 244.768C145.35 244.86 158.623 243.818 170.972 227.511C172.228 225.869 177.404 216.864 178.261 214.812C185.967 196.244 180.325 184.354 176.644 178.099C171.217 168.892 148.798 147.176 116.885 118.635C90.1422 94.7377 71.4293 111.18 58.1374 130.507L58.119 130.519ZM210.75 434.788C222.473 441.503 226.531 456.451 219.815 468.174C216.63 473.736 207.62 479.979 197.44 487.03L197.435 487.033C186.153 494.849 173.439 503.657 165.618 513.641C171.045 503.527 172.041 487.102 172.935 472.378L172.938 472.321C173.673 460.167 174.341 449.171 177.367 443.873C184.076 432.154 199.015 428.094 210.731 434.806L210.75 434.788ZM121.908 219.186C133.601 225.947 148.559 221.958 155.334 210.273C162.107 198.584 158.122 183.616 146.434 176.844C141.148 173.787 130.159 173.064 118 172.267L117.916 172.262C103.212 171.295 86.8091 170.217 76.7339 164.745C86.6545 172.61 95.3828 185.355 103.126 196.663L103.146 196.691L103.149 196.695C110.155 206.918 116.359 215.97 121.908 219.186ZM182.451 143.298C189.232 154.978 204.193 158.954 215.877 152.181H215.895C227.574 145.399 231.549 130.436 224.777 118.751C221.702 113.465 212.52 107.369 202.364 100.631C190.071 92.4711 176.35 83.3619 170.31 73.591C175.021 85.3713 176.264 100.79 177.367 114.469C178.359 126.819 179.241 137.748 182.451 143.298ZM107.22 316.006C120.725 316.01 131.672 305.058 131.666 291.551C131.669 278.047 120.722 267.099 107.22 267.103C101.1 267.103 91.2203 271.985 80.2928 277.394L80.2241 277.428C67.017 283.956 52.2925 291.233 40.8335 291.558C53.3842 293.383 67.3499 300.042 79.7415 305.953C90.92 311.289 100.813 316.006 107.22 316.006ZM151.83 373.608C145.077 361.905 130.112 357.899 118.417 364.664C113.137 367.727 107.024 376.892 100.274 387.036C92.0901 399.319 82.9511 413.035 73.1689 419.056C84.937 414.381 100.336 413.159 113.999 412.076L114.037 412.073L114.078 412.07C126.422 411.091 137.338 410.225 142.887 407.019C154.583 400.263 158.587 385.304 151.83 373.608Z" fill="#F8FAFC"/>
</svg>
