<svg width="21" height="17" viewBox="0 0 21 17" fill="none" xmlns="http://www.w3.org/2000/svg">
<g opacity="0.6">
<path fill-rule="evenodd" clip-rule="evenodd" d="M20.5 2.29692C19.7647 2.62356 18.9734 2.84355 18.1435 2.94287C18.9908 2.43491 19.6414 1.63096 19.9474 0.673025C19.1554 1.14366 18.2761 1.48431 17.3422 1.66896C16.5936 0.87168 15.5263 0.373047 14.3471 0.373047C12.0812 0.373047 10.244 2.21026 10.244 4.47611C10.244 4.79742 10.2807 5.11073 10.3507 5.41138C6.94024 5.24072 3.91711 3.60683 1.89324 1.12433C1.53993 1.73029 1.33794 2.43492 1.33794 3.18687C1.33794 4.6101 2.06123 5.86602 3.16316 6.60197C2.48987 6.58064 1.85791 6.39598 1.30394 6.08867V6.14C1.30394 8.12853 2.71918 9.78642 4.59506 10.1644C4.25108 10.2577 3.88844 10.3084 3.51447 10.3084C3.24982 10.3084 2.9925 10.2824 2.74185 10.2344C3.26382 11.8643 4.77971 13.0509 6.57493 13.0842C5.17102 14.1841 3.40181 14.8408 1.47927 14.8408C1.14729 14.8408 0.820645 14.8214 0.5 14.7828C2.31588 15.9467 4.4724 16.6266 6.78958 16.6266C14.3364 16.6266 18.4635 10.3744 18.4635 4.95274C18.4635 4.77475 18.4601 4.59744 18.4515 4.42211C19.2541 3.84215 19.95 3.11953 20.5 2.29692Z" fill="white"/>
</g>
</svg>
