<svg width="639" height="623" viewBox="0 0 639 623" fill="none" xmlns="http://www.w3.org/2000/svg">
<path opacity="0.15" fill-rule="evenodd" clip-rule="evenodd" d="M639 311.5C639 139.461 495.951 0 319.5 0C143.049 0 0 139.461 0 311.5C0 483.539 143.049 623 319.5 623C495.951 623 639 483.539 639 311.5ZM153.293 53.3573C157.473 50.8004 178.488 38.892 185.258 35.7317V35.7447C208.203 24.9915 234.756 19.7349 247.05 55.7844C261.735 98.8233 271.127 130.59 271.28 141.921C271.373 149.604 270.282 163.505 252.975 176.51C251.064 177.957 241.326 183.486 239.249 184.343C218.813 192.818 205.713 186.777 198.877 182.844C188.879 177.094 165.242 153.342 134.229 119.545C105.712 88.479 130.002 67.5955 153.293 53.3573ZM184.179 344.512C188.353 336.874 191.169 328.217 192.42 318.424H192.387C192.946 314.044 192.88 301.019 192.287 296.652C191.142 288.137 188.826 280.434 185.431 273.562C193.013 268.993 199.929 262.854 206.059 254.963C208.775 251.458 215.432 240.167 217.189 236.059C220.35 228.775 222.324 221.054 223.04 213.176C231.827 212.839 240.807 210.86 249.999 207.057C254.166 205.343 265.689 198.763 269.31 196.044C276.299 190.787 281.984 184.973 286.37 178.639C294.238 182.747 303.171 185.531 313.27 186.744C317.763 187.283 331.122 187.224 335.595 186.647C344.182 185.544 351.937 183.337 358.907 180.112C363.5 187.205 369.577 193.675 377.312 199.431C380.92 202.099 392.509 208.647 396.682 210.347C405.11 213.799 413.37 215.779 421.438 216.317C421.684 224.857 423.601 233.612 427.402 242.548C429.14 246.617 435.776 257.948 438.519 261.485C443.957 268.493 450.008 274.204 456.598 278.598C452.517 286.074 449.728 294.51 448.437 304.037C447.838 308.418 447.778 321.442 448.337 325.816C449.449 334.577 451.759 342.501 455.233 349.549C447.825 354.007 441.055 359.964 435.024 367.589C432.255 371.094 425.505 382.34 423.735 386.409C420.26 394.391 418.223 402.237 417.571 409.888C408.997 410.226 400.21 412.127 391.231 415.755C387.051 417.462 375.455 423.932 371.854 426.606C364.611 431.96 358.727 437.898 354.214 444.374C346.532 440.351 337.825 437.612 328.007 436.353C323.501 435.763 310.161 435.71 305.668 436.256C296.881 437.326 288.947 439.513 281.851 442.778C277.145 435.587 270.914 429.033 262.966 423.231C259.372 420.596 247.743 414.159 243.529 412.458H243.509C235.302 409.188 227.254 407.299 219.386 406.786C219.12 398.064 217.123 389.115 213.135 379.959C211.405 375.916 204.648 364.637 201.879 361.1C196.534 354.312 190.616 348.796 184.173 344.512H184.179ZM308.53 6.90487C313.456 6.72967 337.772 6.72967 345.241 7.28783C370.649 9.20209 396.303 17.6581 388.388 54.8436C378.943 99.2647 370.735 131.356 365.024 141.22C361.177 147.93 353.062 159.404 331.395 162.194C328.999 162.499 317.743 162.519 315.493 162.259C293.433 159.598 285.219 147.975 281.331 141.213C275.647 131.343 267.419 99.2711 257.98 54.8433C249.287 14.0305 281.059 7.84599 308.53 6.90487ZM458.741 38.7038C465.511 41.8188 486.612 53.5976 490.806 56.1415L490.819 56.1219C514.197 70.2302 538.6 90.9905 510.256 122.218C479.43 156.204 455.959 180.047 445.974 185.862C439.158 189.84 426.111 195.946 405.602 187.575C403.519 186.731 393.754 181.228 391.837 179.807C374.463 166.893 373.265 153.005 373.331 145.321C373.411 134.01 382.624 102.179 397.062 59.0617C409.143 22.9602 435.716 28.0416 458.741 38.7038ZM580.576 143.965C584.823 149.987 596.971 170.527 599.301 174.758V174.777C612.214 198.438 622.605 228.336 582.007 241.445C537.847 255.696 505.244 264.808 493.621 264.937C485.694 265.015 471.269 263.912 457.842 246.624C456.498 244.865 450.873 235.338 449.961 233.164C441.581 213.475 447.731 200.885 451.745 194.272C457.643 184.525 482.019 161.526 516.753 131.323C545.829 106.046 566.171 123.477 580.582 143.965H580.576ZM631.525 293.777C632.111 301.065 632.097 324.778 631.931 329.573L631.951 329.541C630.979 356.343 624.642 387.311 582.759 378.842C537.195 369.653 504.292 361.632 494.161 356.064C487.231 352.281 475.316 344.253 472.58 322.766C472.301 320.579 472.334 309.579 472.647 307.262C475.509 286.139 487.291 278.247 494.167 274.47C504.292 268.928 537.188 260.907 582.759 251.705C620.901 244.002 629.574 269.006 631.525 293.777ZM598.608 448.664C595.366 455.244 583.185 475.751 580.569 479.827L580.582 479.859C565.971 502.566 544.551 526.26 512.673 498.471C477.992 468.236 453.629 445.224 447.731 435.477C443.677 428.799 437.48 416.067 446.174 396.105C447.059 394.073 452.73 384.586 454.201 382.73C467.528 365.837 481.793 364.754 489.674 364.844C501.296 364.994 533.88 374.118 578.039 388.421C615.016 400.388 609.638 426.255 598.608 448.664ZM491.738 565.801C485.56 569.954 464.532 581.83 460.186 584.095C435.929 596.737 405.256 606.912 391.757 567.352C377.066 524.313 367.673 492.546 367.527 481.216C367.427 473.467 368.558 459.404 386.258 446.315C388.049 444.971 397.814 439.488 400.044 438.579C420.24 430.402 433.154 436.36 439.943 440.273C449.961 446.048 473.579 469.755 504.605 503.553C530.585 531.873 512.739 551.718 491.737 565.794L491.738 565.801ZM337.659 615.751C330.19 616.309 305.861 616.309 300.948 616.141C273.477 615.193 241.705 609.021 250.392 568.196C259.838 523.768 268.045 491.683 273.756 481.819C277.637 475.063 285.851 463.447 307.911 460.773C310.141 460.507 321.437 460.533 323.814 460.838C345.48 463.635 353.595 475.115 357.462 481.826C363.147 491.696 371.374 523.768 380.82 568.196C388.721 605.381 363.067 613.83 337.659 615.751ZM173.749 581.168C169.409 578.949 148.294 567.17 142.097 563.062L142.117 563.082C121.036 549.116 103.07 529.349 128.89 500.905C159.703 466.926 183.188 443.07 193.173 437.255C199.942 433.322 212.829 427.281 233.052 435.354C235.281 436.23 245.067 441.681 246.871 442.992C264.657 455.984 265.868 470.047 265.802 477.795C265.722 489.126 256.509 520.938 242.071 564.055C228.792 603.707 198.072 593.68 173.749 581.168ZM54.437 473.181C51.8345 469.086 39.6595 448.586 36.4245 441.986C25.408 419.578 20.0693 393.69 57.0599 381.756C101.232 367.499 133.836 358.407 145.458 358.264C153.326 358.167 167.585 359.27 180.911 376.162C182.376 378.018 188.04 387.519 188.912 389.55C197.586 409.499 191.375 422.251 187.321 428.91C181.404 438.676 157.034 461.656 122.314 491.859C90.4022 519.615 69.0084 495.902 54.437 473.175V473.181ZM7.03607 322.195C6.86963 317.393 6.86963 293.686 7.44867 286.398V286.385C9.41223 261.614 18.066 236.591 56.2278 244.313C101.778 253.515 134.675 261.517 144.8 267.079C151.689 270.869 163.458 278.76 166.327 299.89C166.633 302.226 166.666 313.213 166.393 315.387C163.651 336.9 151.735 344.902 144.806 348.711C134.688 354.253 101.778 362.274 56.2278 371.483C14.3448 379.952 8.0011 348.977 7.03607 322.195ZM43.6403 168.08C45.97 163.842 58.1449 143.323 62.3849 137.3L62.405 137.287C76.8496 116.812 97.1852 99.3944 126.248 124.71C160.928 154.945 185.291 177.951 191.189 187.705C195.19 194.33 201.32 206.927 192.946 226.597C192.014 228.771 186.389 238.31 185.025 240.05C171.605 257.325 157.181 258.428 149.226 258.331C137.604 258.188 105.007 249.064 60.8607 234.761C20.2626 221.613 30.7067 191.735 43.6403 168.08ZM420.014 311.5C420.014 257.39 375.016 213.507 319.5 213.507C263.998 213.507 218.986 257.39 218.986 311.5C218.986 365.61 263.984 409.493 319.5 409.493C375.016 409.493 420.014 365.61 420.014 311.5ZM393.015 311.5C393.015 351.086 360.098 383.171 319.5 383.171C278.895 383.171 245.985 351.08 245.985 311.5C245.985 271.914 278.902 239.829 319.5 239.829C360.105 239.829 393.015 271.92 393.015 311.5ZM405.03 462.843C417.726 455.668 433.985 459.88 441.354 472.254C444.683 477.861 445.475 489.503 446.347 502.391C447.405 517.992 448.59 535.404 454.548 546.105C445.987 535.579 432.115 526.325 419.807 518.115C408.691 510.698 398.859 504.137 395.358 498.257C388.002 485.878 392.321 470.03 405.01 462.843H405.03ZM238.104 494.999C245.403 482.581 240.992 466.745 228.252 459.631L228.232 459.651C215.5 452.541 199.266 456.841 191.974 469.255C188.686 474.869 187.96 486.517 187.161 499.393C186.19 515.007 185.111 532.438 179.207 543.165C187.707 532.587 201.526 523.255 213.788 514.974C224.851 507.505 234.642 500.892 238.104 494.999ZM410.934 163.447C398.195 156.333 393.784 140.497 401.082 128.078C404.377 122.465 414.316 115.956 425.312 108.752C438.618 100.037 453.469 90.3024 459.973 79.9128C454.934 92.4051 453.682 108.739 452.564 123.237C451.559 136.333 450.667 147.93 447.205 153.823C439.916 166.249 423.671 170.559 410.928 163.447H410.934ZM507.207 391.932C494.501 384.766 478.243 388.992 470.883 401.374C463.522 413.757 467.853 429.613 480.555 436.788C486.579 440.182 498.454 441.11 511.867 442.155C526.738 443.31 543.499 444.621 556.299 449.605C545.676 443.213 535.764 428.669 526.891 415.645C519.569 404.892 512.945 395.177 507.207 391.932ZM168.031 221.788C160.669 234.167 144.413 238.392 131.706 231.23C125.675 227.823 118.932 218.232 111.317 207.4C102.897 195.414 93.4043 181.896 82.6141 173.557C93.584 179.366 111.457 180.501 127.459 181.527C140.672 182.37 152.614 183.136 158.359 186.374C171.061 193.549 175.391 209.405 168.031 221.788ZM511.241 237.811C498.535 244.971 482.281 240.742 474.923 228.362C467.567 215.98 471.897 200.13 484.595 192.955C490.34 189.71 502.282 188.951 515.488 188.107C531.497 187.082 549.363 185.94 560.333 180.138C549.55 188.477 540.057 201.988 531.63 213.975C524.015 224.812 517.272 234.404 511.241 237.811ZM233.824 160.247C221.127 167.422 204.868 163.211 197.499 150.837C194.011 144.958 193.053 133.38 191.974 120.297C190.776 105.806 189.425 89.472 184.306 76.9924C190.869 87.3433 205.78 96.9932 219.139 105.637C230.176 112.776 240.154 119.233 243.496 124.834C250.855 137.212 246.535 153.063 233.844 160.247H233.824ZM296.635 112.828C296.631 127.139 308.528 138.744 323.208 138.747C337.883 138.736 349.774 127.135 349.774 112.828C349.774 106.358 344.469 95.8901 338.591 84.3191C331.488 70.3146 323.554 54.6747 323.201 42.5133C321.217 55.7974 313.982 70.5872 307.558 83.7091C301.767 95.5527 296.635 106.04 296.635 112.828ZM142.31 307.892C142.317 322.2 130.42 333.802 115.744 333.798C108.781 333.798 98.0306 328.801 85.8826 323.149C72.4163 316.886 57.2396 309.832 43.6004 307.898C56.0748 307.554 72.1101 299.819 86.4817 292.894C98.3569 287.164 109.094 281.992 115.744 281.992C130.417 281.988 142.314 293.586 142.31 307.892ZM523.263 341.196C502.81 341.196 490.026 319.61 500.253 302.342C504.999 294.328 513.771 289.39 523.263 289.39C529.906 289.39 540.643 294.569 552.525 300.292C566.89 307.223 582.925 314.952 595.393 315.296C581.76 317.237 566.584 324.291 553.124 330.547C540.969 336.193 530.219 341.196 523.256 341.196H523.263ZM127.912 385.345C140.622 378.178 156.885 382.422 164.223 394.82C171.566 407.21 167.215 423.057 154.505 430.214C148.467 433.614 136.585 434.53 123.152 435.568C108.295 436.716 91.5406 438.008 78.7401 442.966C89.3706 436.587 99.3021 422.057 108.195 409.045C115.531 398.298 122.174 388.59 127.912 385.345ZM342.185 510.166C342.182 495.857 330.289 484.257 315.613 484.246C300.928 484.246 289.023 495.85 289.02 510.166C289.02 516.954 294.152 527.441 299.956 539.284C306.373 552.4 313.609 567.19 315.613 580.48C315.945 568.325 323.887 552.679 330.996 538.668C336.873 527.097 342.179 516.636 342.179 510.166H342.185Z" fill="#9199AC" fill-opacity="0.03"/>
</svg>
