<svg width="283" height="283" viewBox="0 0 283 283" fill="none" xmlns="http://www.w3.org/2000/svg">
<path opacity="0.3" fill-rule="evenodd" clip-rule="evenodd" d="M0 141.5C0 63.3508 63.3534 0 141.5 0C219.647 0 283 63.3508 283 141.5C283 219.649 219.647 283 141.5 283C63.3534 283 0 219.649 0 141.5ZM215.11 24.2377C213.258 23.0763 203.951 17.6668 200.953 16.2313V16.2372C190.791 11.3525 179.032 8.96463 173.586 25.3403C167.083 44.8908 162.923 59.321 162.856 64.468C162.814 67.9584 163.298 74.2727 170.963 80.1804C171.809 80.8377 176.122 83.3494 177.042 83.7385C186.092 87.5885 191.894 84.844 194.921 83.0575C199.349 80.4457 209.818 69.6563 223.553 54.3035C236.182 40.1919 225.425 30.7055 215.11 24.2377ZM201.431 156.496C199.582 153.026 198.335 149.094 197.781 144.645H197.796C197.548 142.656 197.578 136.739 197.84 134.755C198.347 130.887 199.373 127.388 200.876 124.266C197.519 122.191 194.456 119.402 191.74 115.818C190.538 114.226 187.59 109.096 186.811 107.23C185.412 103.922 184.537 100.415 184.22 96.8361C180.329 96.6828 176.352 95.7837 172.28 94.0563C170.435 93.278 165.332 90.2888 163.728 89.0536C160.633 86.6658 158.115 84.0244 156.172 81.1473C152.688 83.0134 148.732 84.278 144.259 84.8292C142.269 85.074 136.353 85.0474 134.372 84.7851C130.569 84.2839 127.134 83.2816 124.048 81.8165C122.013 85.0385 119.322 87.9777 115.896 90.5925C114.298 91.804 109.166 94.7784 107.317 95.5508C103.585 97.1191 99.9267 98.0183 96.3537 98.2629C96.2447 102.142 95.3956 106.119 93.7122 110.178C92.9428 112.027 90.0036 117.174 88.789 118.78C86.3805 121.964 83.7007 124.558 80.7822 126.554C82.5893 129.95 83.8245 133.782 84.3964 138.11C84.6618 140.1 84.6883 146.016 84.4407 148.003C83.9483 151.983 82.9253 155.582 81.3865 158.784C84.6677 160.809 87.6658 163.515 90.3368 166.979C91.5631 168.571 94.5525 173.679 95.3366 175.528C96.8755 179.154 97.7776 182.718 98.0665 186.193C101.864 186.347 105.755 187.21 109.732 188.858C111.583 189.634 116.719 192.573 118.314 193.787C121.521 196.219 124.127 198.917 126.126 201.859C129.528 200.031 133.384 198.787 137.732 198.215C139.728 197.947 145.636 197.923 147.626 198.171C151.517 198.657 155.031 199.651 158.174 201.133C160.258 197.867 163.018 194.89 166.538 192.254C168.13 191.057 173.28 188.133 175.146 187.361H175.155C178.79 185.875 182.354 185.017 185.838 184.784C185.956 180.822 186.841 176.757 188.607 172.598C189.373 170.761 192.365 165.637 193.592 164.031C195.959 160.947 198.58 158.442 201.434 156.496H201.431ZM146.358 3.13656C144.177 3.05698 133.408 3.05698 130.1 3.31052C118.847 4.18008 107.486 8.02126 110.991 24.9129C115.174 45.0914 118.809 59.6688 121.338 64.1496C123.042 67.1977 126.636 72.4097 136.232 73.6773C137.293 73.8159 142.278 73.8246 143.275 73.7067C153.045 72.4981 156.682 67.2184 158.404 64.1466C160.922 59.6629 164.565 45.0943 168.746 24.9128C172.596 6.37339 158.525 3.56407 146.358 3.13656ZM79.8329 17.5813C76.8348 18.9963 67.4895 24.3469 65.6322 25.5025L65.6263 25.4936C55.2728 31.9023 44.4653 41.3328 57.0181 55.5181C70.6705 70.9563 81.0652 81.787 85.4872 84.4284C88.5061 86.2354 94.2842 89.0094 103.367 85.2066C104.29 84.8233 108.615 82.3235 109.464 81.678C117.158 75.8115 117.689 69.5031 117.659 66.0127C117.624 60.8745 113.544 46.415 107.149 26.829C101.799 10.4298 90.0302 12.738 79.8329 17.5813ZM25.8749 65.3966C23.9941 68.1322 18.614 77.4624 17.5821 79.3845V79.3933C11.8629 90.1414 7.26104 103.723 25.2411 109.677C44.7985 116.151 59.2379 120.29 64.3852 120.349C67.8963 120.384 74.2847 119.883 80.2309 112.03C80.8264 111.231 83.3175 106.903 83.7214 105.916C87.433 96.9717 84.709 91.2527 82.9313 88.2489C80.3193 83.821 69.5236 73.3737 54.1407 59.6541C41.2637 48.1719 32.2544 56.09 25.872 65.3966H25.8749ZM3.31066 133.449C3.05121 136.76 3.0571 147.531 3.1308 149.71L3.12202 149.695C3.55243 161.87 6.35887 175.938 24.908 172.091C45.0874 167.916 59.6595 164.273 64.1464 161.743C67.2153 160.025 72.4922 156.378 73.7039 146.618C73.8277 145.624 73.813 140.627 73.6744 139.575C72.4068 129.98 67.1887 126.395 64.1434 124.679C59.6595 122.162 45.0902 118.518 24.9079 114.338C8.0157 110.839 4.17437 122.197 3.31066 133.449ZM17.8887 203.807C19.3244 206.796 24.7193 216.112 25.8779 217.963L25.872 217.978C32.3429 228.293 41.8297 239.055 55.9478 226.432C71.3072 212.698 82.097 202.245 84.709 197.817C86.5043 194.784 89.249 189 85.3989 179.932C85.0067 179.009 82.495 174.699 81.8435 173.856C75.9415 166.183 69.6239 165.691 66.1334 165.732C60.9861 165.8 46.5554 169.945 26.9982 176.442C10.6218 181.878 13.0038 193.628 17.8887 203.807ZM65.2194 257.017C67.9553 258.904 77.2681 264.298 79.1932 265.327C89.9358 271.07 103.52 275.692 109.499 257.722C116.005 238.171 120.165 223.741 120.23 218.594C120.274 215.074 119.773 208.686 111.934 202.74C111.141 202.13 106.816 199.639 105.829 199.226C96.8844 195.512 91.1651 198.218 88.1582 199.996C83.7214 202.619 73.2617 213.388 59.521 228.741C48.0147 241.605 55.9184 250.62 65.2195 257.014L65.2194 257.017ZM133.458 279.707C136.766 279.961 147.541 279.961 149.716 279.884C161.883 279.454 175.954 276.65 172.107 258.105C167.923 237.923 164.288 223.349 161.759 218.868C160.04 215.799 156.402 210.523 146.633 209.308C145.645 209.187 140.642 209.199 139.59 209.337C129.994 210.608 126.4 215.823 124.687 218.871C122.17 223.355 118.526 237.923 114.343 258.105C110.843 274.996 122.205 278.835 133.458 279.707ZM206.05 263.998C207.972 262.99 217.324 257.639 220.068 255.773L220.059 255.782C229.396 249.438 237.353 240.459 225.917 227.538C212.271 212.103 201.87 201.266 197.448 198.625C194.45 196.838 188.742 194.094 179.786 197.761C178.799 198.159 174.465 200.635 173.666 201.231C165.789 207.132 165.252 213.521 165.282 217.04C165.317 222.187 169.397 236.638 175.792 256.224C181.673 274.236 195.278 269.681 206.05 263.998ZM258.891 214.944C260.044 213.084 265.436 203.772 266.868 200.774C271.747 190.595 274.112 178.835 257.729 173.414C238.166 166.938 223.727 162.808 218.579 162.743C215.095 162.698 208.78 163.2 202.878 170.873C202.23 171.716 199.721 176.032 199.335 176.955C195.493 186.016 198.244 191.809 200.039 194.834C202.66 199.27 213.453 209.709 228.83 223.428C242.963 236.037 252.438 225.265 258.891 214.941V214.944ZM279.884 146.358C279.958 144.177 279.958 133.408 279.701 130.097V130.092C278.832 118.839 274.999 107.472 258.098 110.98C237.924 115.16 223.355 118.795 218.871 121.322C215.82 123.043 210.608 126.628 209.337 136.226C209.202 137.287 209.187 142.278 209.308 143.266C210.522 153.038 215.799 156.673 218.868 158.403C223.349 160.921 237.924 164.564 258.098 168.748C276.647 172.595 279.456 158.524 279.884 146.358ZM263.673 76.3511C262.641 74.426 257.249 65.1048 255.371 62.369L255.362 62.3631C248.965 53.0625 239.959 45.1503 227.087 56.6501C211.728 70.3844 200.938 80.8348 198.326 85.2656C196.555 88.2753 193.839 93.9972 197.548 102.932C197.961 103.92 200.452 108.253 201.056 109.043C207 116.891 213.388 117.392 216.911 117.348C222.058 117.283 236.495 113.138 256.046 106.641C274.026 100.668 269.401 87.0962 263.673 76.3511ZM96.9846 141.5C96.9846 116.92 116.913 96.9864 141.5 96.9864C166.081 96.9864 186.015 116.92 186.015 141.5C186.015 166.08 166.087 186.014 141.5 186.014C116.913 186.014 96.9846 166.08 96.9846 141.5ZM108.942 141.5C108.942 159.482 123.52 174.057 141.5 174.057C159.483 174.057 174.058 159.479 174.058 141.5C174.058 123.518 159.48 108.943 141.5 108.943C123.517 108.943 108.942 123.521 108.942 141.5ZM103.621 210.248C97.9975 206.989 90.7968 208.902 87.5332 214.523C86.0591 217.07 85.7083 222.358 85.3222 228.213C84.8534 235.3 84.3286 243.209 81.6901 248.07C85.4813 243.289 91.625 239.085 97.0759 235.356C101.999 231.986 106.354 229.006 107.904 226.335C111.162 220.712 109.249 213.513 103.629 210.248H103.621ZM177.549 224.855C174.316 219.214 176.27 212.021 181.912 208.789L181.921 208.798C187.56 205.568 194.749 207.522 197.979 213.161C199.435 215.711 199.756 221.002 200.11 226.851C200.54 233.944 201.018 241.862 203.633 246.735C199.868 241.93 193.748 237.691 188.318 233.929C183.418 230.536 179.082 227.532 177.549 224.855ZM101.006 74.2463C106.648 71.0147 108.601 63.8214 105.369 58.1801C103.91 55.6302 99.5081 52.6733 94.638 49.4012C88.7449 45.4422 82.1678 41.0202 79.2875 36.3007C81.5192 41.9754 82.0734 49.3953 82.5687 55.981C83.0138 61.9299 83.4089 67.1977 84.9419 69.8744C88.1704 75.5194 95.3648 77.4771 101.009 74.2463H101.006ZM58.3682 178.036C63.9955 174.781 71.1962 176.701 74.4557 182.326C77.7155 187.951 75.7976 195.153 70.1721 198.412C67.5042 199.954 62.2449 200.376 56.3046 200.85C49.7187 201.375 42.2955 201.971 36.6265 204.235C41.3315 201.331 45.7212 194.725 49.6509 188.808C52.8937 183.923 55.827 179.51 58.3682 178.036ZM208.583 100.748C211.843 106.371 219.043 108.291 224.67 105.037C227.341 103.49 230.327 99.1326 233.7 94.2124C237.429 88.7676 241.633 82.6271 246.412 78.8391C241.554 81.4774 233.638 81.9933 226.551 82.4592C220.699 82.8423 215.41 83.1902 212.866 84.6612C207.241 87.9205 205.323 95.123 208.583 100.748ZM56.5817 108.026C62.2091 111.279 69.4078 109.358 72.6662 103.734C75.924 98.1099 74.0064 90.9097 68.3827 87.6504C65.8386 86.1764 60.5497 85.8315 54.7009 85.4483C47.6108 84.9825 39.6983 84.4637 34.8399 81.8282C39.6158 85.6163 43.8197 91.7539 47.5519 97.1987C50.9244 102.122 53.9107 106.479 56.5817 108.026ZM179.444 72.7929C185.067 76.0523 192.268 74.1391 195.532 68.5185C197.076 65.8476 197.501 60.5886 197.979 54.6456C198.509 48.0629 199.108 40.643 201.375 34.9741C198.468 39.676 191.864 44.0595 185.948 47.9862C181.06 51.2289 176.641 54.162 175.161 56.7062C171.901 62.3291 173.814 69.5295 179.435 72.7929H179.444ZM151.627 51.2525C151.628 57.7534 146.359 63.0248 139.858 63.0264C133.358 63.0216 128.092 57.7516 128.092 51.2525C128.092 48.3134 130.442 43.5584 133.045 38.3023C136.191 31.9406 139.705 24.8362 139.861 19.3118C140.739 25.3462 143.944 32.0645 146.789 38.0252C149.354 43.4052 151.627 48.1689 151.627 51.2525ZM219.974 139.861C219.971 146.361 225.24 151.631 231.74 151.629C234.823 151.629 239.584 149.359 244.964 146.792C250.928 143.947 257.65 140.742 263.69 139.864C258.166 139.708 251.064 136.194 244.699 133.048C239.44 130.445 234.685 128.096 231.74 128.096C225.241 128.094 219.972 133.363 219.974 139.861ZM51.2576 154.99C60.3159 154.99 65.9773 145.184 61.4482 137.34C59.3463 133.699 55.4613 131.457 51.2576 131.456C48.3154 131.456 43.5602 133.809 38.298 136.409C31.9361 139.557 24.8343 143.068 19.3126 143.225C25.3502 144.106 32.0717 147.31 38.0326 150.152C43.4157 152.717 48.1768 154.99 51.2605 154.99H51.2576ZM226.351 175.044C220.722 171.789 213.519 173.716 210.269 179.348C207.017 184.977 208.944 192.175 214.573 195.426C217.247 196.971 222.509 197.387 228.458 197.858C235.038 198.38 242.458 198.967 248.128 201.219C243.42 198.321 239.021 191.721 235.083 185.81C231.834 180.928 228.892 176.518 226.351 175.044ZM131.453 231.745C131.455 225.245 136.722 219.975 143.222 219.971C149.725 219.971 154.997 225.242 154.999 231.745C154.999 234.828 152.726 239.592 150.155 244.972C147.314 250.93 144.109 257.648 143.222 263.685C143.074 258.164 139.557 251.056 136.409 244.692C133.806 239.436 131.456 234.684 131.456 231.745H131.453Z" fill="#16495C"/>
</svg>
