<svg width="889" height="889" viewBox="0 0 889 889" fill="none" xmlns="http://www.w3.org/2000/svg">
<path fill-rule="evenodd" clip-rule="evenodd" d="M0.0898438 444.5C0.0898438 199.045 199.065 0.0698242 444.501 0.0698242C689.938 0.0698242 888.913 199.045 888.913 444.5C888.913 689.955 689.938 888.93 444.501 888.93C199.065 888.93 0.0898438 689.955 0.0898438 444.5ZM675.688 76.1969C669.874 72.5489 640.643 55.5586 631.227 51.0498V51.0683C599.311 35.7262 562.377 28.2264 545.276 79.6598C524.851 141.065 511.786 186.388 511.573 202.554C511.444 213.517 512.962 233.349 537.035 251.904C539.693 253.969 553.239 261.858 556.127 263.08C584.552 275.172 602.774 266.552 612.283 260.941C626.19 252.738 659.069 218.85 702.206 170.629C741.871 126.306 708.085 96.5111 675.688 76.1969ZM632.727 491.6C626.921 480.702 623.005 468.351 621.264 454.379H621.311C620.533 448.129 620.625 429.547 621.449 423.315C623.042 411.168 626.264 400.177 630.986 390.372C620.44 383.854 610.82 375.095 602.293 363.836C598.515 358.836 589.256 342.725 586.811 336.864C582.415 326.472 579.669 315.457 578.673 304.217C566.451 303.736 553.961 300.912 541.174 295.486C535.378 293.042 519.351 283.653 514.314 279.774C504.592 272.274 496.685 263.978 490.583 254.941C479.639 260.802 467.214 264.774 453.168 266.505C446.918 267.274 428.335 267.191 422.113 266.367C410.169 264.793 399.382 261.645 389.688 257.043C383.3 267.163 374.846 276.394 364.087 284.607C359.069 288.412 342.949 297.755 337.144 300.181C325.422 305.106 313.931 307.93 302.71 308.699C302.367 320.883 299.701 333.374 294.414 346.123C291.997 351.929 282.766 368.095 278.951 373.141C271.387 383.141 262.97 391.289 253.804 397.557C259.48 408.223 263.359 420.26 265.155 433.852C265.989 440.102 266.072 458.685 265.294 464.925C263.748 477.425 260.535 488.73 255.702 498.785C266.007 505.146 275.424 513.646 283.812 524.525C287.664 529.525 297.053 545.571 299.515 551.376C304.348 562.764 307.182 573.959 308.089 584.875C320.015 585.356 332.237 588.069 344.727 593.245C350.541 595.68 366.671 604.911 371.679 608.726C381.753 616.365 389.938 624.837 396.216 634.077C406.901 628.336 419.011 624.429 432.668 622.633C438.937 621.79 457.491 621.716 463.741 622.494C475.963 624.022 487 627.142 496.87 631.799C503.416 621.541 512.082 612.189 523.138 603.911C528.137 600.152 544.313 590.967 550.174 588.541H550.201C561.618 583.875 572.812 581.18 583.756 580.449C584.126 568.005 586.904 555.237 592.45 542.173C594.857 536.404 604.255 520.312 608.107 515.266C615.542 505.581 623.773 497.711 632.736 491.6H632.727ZM459.76 9.9213C452.909 9.67133 419.085 9.67133 408.697 10.4677C373.356 13.1988 337.672 25.2634 348.68 78.3174C361.819 141.695 373.235 187.48 381.179 201.554C386.531 211.128 397.818 227.498 427.955 231.479C431.289 231.914 446.946 231.942 450.075 231.571C480.76 227.775 492.185 211.193 497.592 201.545C505.499 187.462 516.943 141.704 530.073 78.3171C542.165 20.0877 497.972 11.264 459.76 9.9213ZM250.822 55.2902C241.406 59.7345 212.055 76.5397 206.222 80.1692L206.203 80.1412C173.686 100.27 139.743 129.89 179.168 174.444C222.046 222.933 254.693 256.95 268.581 265.247C278.062 270.922 296.21 279.635 324.737 267.691C327.635 266.487 341.218 258.636 343.884 256.608C368.05 238.182 369.717 218.368 369.624 207.406C369.513 191.267 356.699 145.852 336.616 84.3356C319.811 32.8281 282.849 40.078 250.822 55.2902ZM81.3556 205.471C75.4485 214.063 58.5511 243.368 55.3102 249.405V249.432C37.348 283.19 22.8947 325.846 79.3649 344.55C140.789 364.882 186.139 377.882 202.305 378.067C213.333 378.178 233.397 376.604 252.073 351.938C253.943 349.429 261.767 335.837 263.035 332.735C274.692 304.643 266.137 286.681 260.554 277.246C252.35 263.339 218.444 230.526 170.131 187.434C129.687 151.371 101.392 176.24 81.3465 205.471H81.3556ZM10.4877 419.214C9.67284 429.611 9.69135 463.444 9.92281 470.286L9.89524 470.24C11.247 508.479 20.0613 552.663 78.319 540.58C141.696 527.469 187.463 516.025 201.556 508.081C211.194 502.683 227.768 491.23 231.573 460.573C231.962 457.453 231.916 441.759 231.48 438.454C227.499 408.316 211.111 397.057 201.546 391.668C187.463 383.761 141.706 372.317 78.3186 359.188C25.2649 348.198 13.2003 383.872 10.4877 419.214ZM56.2731 640.197C60.7823 649.586 77.7261 678.844 81.365 684.659L81.3465 684.705C101.67 717.102 131.465 750.907 175.806 711.26C224.046 668.122 257.933 635.29 266.137 621.383C271.776 611.856 280.396 593.689 268.304 565.209C267.072 562.311 259.183 548.774 257.137 546.126C238.601 522.025 218.759 520.479 207.796 520.608C191.63 520.821 146.307 533.84 84.8835 554.246C33.45 571.32 40.931 608.226 56.2731 640.197ZM204.926 807.321C213.518 813.247 242.767 830.191 248.813 833.423C282.553 851.459 325.218 865.977 343.995 809.534C364.43 748.129 377.494 702.806 377.698 686.64C377.837 675.585 376.263 655.521 351.643 636.846C349.153 634.929 335.57 627.105 332.468 625.809C304.376 614.143 286.414 622.642 276.97 628.225C263.035 636.466 230.184 670.289 187.028 718.509C150.891 758.915 175.714 787.229 204.926 807.312L204.926 807.321ZM419.243 878.588C429.632 879.384 463.473 879.384 470.306 879.143C508.518 877.792 552.711 868.986 540.628 810.738C527.489 747.351 516.073 701.575 508.129 687.501C502.731 677.863 491.305 661.289 460.621 657.474C457.519 657.095 441.807 657.132 438.501 657.567C408.364 661.558 397.077 677.937 391.698 687.511C383.79 701.593 372.346 747.351 359.208 810.738C348.217 863.792 383.901 875.847 419.243 878.588ZM647.235 829.247C653.272 826.08 682.642 809.275 691.262 803.414L691.234 803.442C720.557 783.517 745.547 755.314 709.632 714.732C666.772 666.252 634.106 632.216 620.218 623.92C610.802 618.309 592.876 609.689 564.747 621.207C561.646 622.457 548.035 630.235 545.526 632.105C520.786 650.641 519.101 670.706 519.193 681.761C519.305 697.927 532.119 743.314 552.201 804.831C570.673 861.403 613.403 847.098 647.235 829.247ZM813.193 675.178C816.813 669.335 833.748 640.086 838.248 630.67C853.571 598.699 860.997 561.765 809.545 544.738C748.103 524.395 702.752 511.424 686.586 511.22C675.642 511.081 655.809 512.655 637.273 536.756C635.236 539.404 627.357 552.959 626.144 555.857C614.079 584.319 622.718 602.513 628.356 612.013C636.588 625.948 670.485 658.734 718.78 701.825C763.167 741.426 792.925 707.593 813.193 675.168V675.178ZM879.126 459.759C879.357 452.907 879.357 419.084 878.552 408.686V408.668C875.821 373.326 863.784 337.624 810.702 348.642C747.343 361.771 701.585 373.188 687.503 381.122C677.92 386.53 661.55 397.788 657.559 427.936C657.133 431.269 657.087 446.944 657.467 450.046C661.281 480.74 677.855 492.156 687.494 497.591C701.567 505.498 747.343 516.942 810.702 530.08C868.96 542.163 877.784 497.97 879.126 459.759ZM828.211 239.877C824.97 233.831 808.036 204.554 802.138 195.962L802.11 195.943C782.018 166.731 753.732 141.88 713.308 177.999C665.068 221.137 631.18 253.96 622.977 267.876C617.412 277.329 608.885 295.301 620.533 323.365C621.829 326.467 629.653 340.077 631.551 342.559C650.217 367.206 670.281 368.78 681.346 368.641C697.512 368.437 742.853 355.419 804.258 335.013C860.728 316.254 846.201 273.626 828.211 239.877ZM304.691 444.5C304.691 367.299 367.282 304.689 444.501 304.689C521.703 304.689 584.312 367.299 584.312 444.5C584.312 521.701 521.721 584.31 444.501 584.31C367.282 584.31 304.691 521.701 304.691 444.5ZM342.245 444.5C342.245 500.98 388.031 546.756 444.501 546.756C500.981 546.756 546.757 500.97 546.757 444.5C546.757 388.02 500.972 342.244 444.501 342.244C388.022 342.244 342.245 388.029 342.245 444.5ZM325.533 660.428C307.872 650.191 285.257 656.2 275.007 673.854C270.377 681.853 269.275 698.464 268.063 716.852C266.59 739.111 264.942 763.953 256.655 779.221C268.563 764.203 287.858 750.999 304.978 739.287C320.44 728.704 334.116 719.343 338.986 710.954C349.218 693.293 343.21 670.681 325.561 660.428H325.533ZM557.72 706.306C547.568 688.588 553.703 665.994 571.423 655.845L571.451 655.873C589.162 645.728 611.742 651.864 621.884 669.576C626.458 677.585 627.468 694.205 628.579 712.575C629.931 734.852 631.43 759.721 639.643 775.026C627.819 759.934 608.598 746.62 591.543 734.805C576.155 724.148 562.535 714.713 557.72 706.306ZM317.32 233.266C335.04 223.116 341.176 200.523 331.024 182.805C326.44 174.796 312.617 165.509 297.321 155.231C278.812 142.797 258.156 128.908 249.11 114.085C256.119 131.908 257.859 155.213 259.415 175.898C260.813 194.582 262.054 211.128 266.868 219.535C277.008 237.265 299.604 243.414 317.329 233.266H317.32ZM183.408 559.255C201.082 549.031 223.697 555.061 233.934 572.727C244.172 590.394 238.149 613.016 220.481 623.253C212.101 628.096 195.584 629.42 176.927 630.911C156.242 632.559 132.928 634.429 115.123 641.54C129.9 632.42 143.687 611.671 156.029 593.088C166.214 577.745 175.427 563.885 183.408 559.255ZM655.189 316.504C665.429 334.166 688.041 340.194 705.715 329.976C714.104 325.115 723.483 311.43 734.075 295.977C745.788 278.875 758.991 259.589 774 247.691C758.741 255.978 733.881 257.598 711.622 259.062C693.243 260.265 676.633 261.358 668.642 265.978C650.974 276.215 644.951 298.837 655.189 316.504ZM177.797 339.364C195.471 349.581 218.08 343.547 228.314 325.883C238.546 308.218 232.523 285.603 214.861 275.367C206.87 270.737 190.259 269.653 171.89 268.45C149.622 266.987 124.771 265.358 109.512 257.08C124.512 268.978 137.715 288.255 149.437 305.356C160.029 320.819 169.408 334.503 177.797 339.364ZM563.674 228.701C581.334 238.938 603.95 232.929 614.2 215.276C619.051 206.887 620.385 190.369 621.884 171.703C623.551 151.028 625.431 127.723 632.551 109.918C623.422 124.686 602.681 138.454 584.099 150.787C568.747 160.972 554.868 170.185 550.22 178.175C539.983 195.836 545.992 218.452 563.646 228.701H563.674ZM476.306 161.046C476.311 181.464 459.763 198.021 439.344 198.026C418.931 198.011 402.392 181.459 402.392 161.046C402.392 151.815 409.771 136.88 417.947 120.371C427.826 100.391 438.863 78.0766 439.353 60.7253C442.113 79.6783 452.177 100.779 461.112 119.501C469.167 136.399 476.306 151.361 476.306 161.046ZM690.966 439.352C690.955 459.766 707.504 476.319 727.918 476.314C737.603 476.314 752.556 469.184 769.454 461.12C788.185 452.185 809.295 442.12 828.266 439.361C810.915 438.87 788.611 427.834 768.62 417.955C752.102 409.779 737.168 402.399 727.918 402.399C707.508 402.394 690.96 418.941 690.966 439.352ZM161.075 486.869C189.525 486.869 207.306 456.071 193.081 431.433C186.48 419.999 174.278 412.955 161.075 412.954C151.835 412.954 136.9 420.343 120.373 428.509C100.392 438.398 78.0875 449.426 60.7453 449.916C79.7078 452.685 100.818 462.749 119.54 471.675C136.446 479.73 151.4 486.869 161.085 486.869H161.075ZM710.993 549.858C693.314 539.632 670.693 545.687 660.485 563.376C650.271 581.053 656.324 603.664 674.003 613.874C682.401 618.726 698.928 620.031 717.613 621.513C738.279 623.151 761.583 624.994 779.389 632.068C764.602 622.966 750.788 602.236 738.418 583.671C728.214 568.338 718.974 554.487 710.993 549.858ZM412.947 727.944C412.952 707.53 429.495 690.979 449.909 690.964C470.334 690.964 486.893 707.519 486.898 727.944C486.898 737.629 479.759 752.592 471.686 769.489C462.76 788.202 452.696 809.303 449.909 828.265C449.446 810.923 438.4 788.6 428.511 768.61C420.336 752.101 412.956 737.176 412.956 727.944H412.947Z" fill="#0F172A" fill-opacity="0.5"/>
</svg>
