<svg width="331" height="331" viewBox="0 0 331 331" fill="none" xmlns="http://www.w3.org/2000/svg">
<path opacity="0.2" fill-rule="evenodd" clip-rule="evenodd" d="M0 165.5C0 74.0958 74.0989 0 165.5 0C256.901 0 331 74.0958 331 165.5C331 256.904 256.901 331 165.5 331C74.0989 331 0 256.904 0 165.5ZM251.595 28.3487C249.429 26.9903 238.544 20.6633 235.037 18.9843V18.9912C223.152 13.278 209.397 10.4851 203.029 29.6383C195.422 52.5048 190.557 69.3825 190.478 75.4025C190.43 79.4849 190.995 86.8702 199.96 93.7799C200.95 94.5487 205.994 97.4864 207.07 97.9415C217.655 102.444 224.441 99.2345 227.982 97.145C233.161 94.0902 245.405 81.4709 261.47 63.514C276.241 47.0089 263.659 35.9135 251.595 28.3487ZM235.596 183.04C233.434 178.981 231.975 174.382 231.327 169.179H231.344C231.055 166.852 231.089 159.932 231.396 157.611C231.989 153.088 233.189 148.995 234.947 145.343C231.02 142.916 227.438 139.654 224.262 135.462C222.855 133.6 219.407 127.601 218.497 125.418C216.859 121.548 215.837 117.446 215.466 113.261C210.914 113.081 206.263 112.03 201.501 110.009C199.343 109.099 193.374 105.603 191.498 104.158C187.878 101.365 184.933 98.2759 182.661 94.9108C178.585 97.0934 173.958 98.5725 168.727 99.2172C166.4 99.5035 159.48 99.4724 157.163 99.1656C152.715 98.5794 148.698 97.4071 145.088 95.6935C142.708 99.462 139.56 102.9 135.554 105.958C133.685 107.375 127.682 110.854 125.52 111.757C121.154 113.592 116.875 114.643 112.696 114.929C112.569 119.467 111.576 124.118 109.607 128.866C108.707 131.028 105.269 137.048 103.849 138.927C101.032 142.651 97.8973 145.685 94.4838 148.019C96.5974 151.991 98.0421 156.473 98.711 161.535C99.0214 163.862 99.0524 170.782 98.7628 173.106C98.1869 177.761 96.9904 181.971 95.1905 185.715C99.0283 188.084 102.535 191.249 105.659 195.3C107.093 197.162 110.59 203.137 111.507 205.299C113.307 209.54 114.362 213.709 114.7 217.774C119.141 217.953 123.692 218.963 128.344 220.891C130.509 221.798 136.516 225.235 138.381 226.656C142.132 229.5 145.18 232.655 147.518 236.096C151.497 233.958 156.007 232.503 161.093 231.834C163.428 231.521 170.338 231.493 172.665 231.783C177.216 232.352 181.326 233.514 185.002 235.248C187.44 231.428 190.667 227.945 194.784 224.863C196.646 223.463 202.67 220.043 204.853 219.139H204.863C209.115 217.401 213.283 216.398 217.359 216.126C217.497 211.492 218.531 206.737 220.596 201.872C221.493 199.724 224.993 193.731 226.427 191.852C229.196 188.246 232.261 185.315 235.599 183.04H235.596ZM171.182 3.66856C168.631 3.57548 156.035 3.57548 152.166 3.87202C139.005 4.88907 125.716 9.38176 129.816 29.1384C134.709 52.7394 138.96 69.7893 141.919 75.0301C143.912 78.5952 148.115 84.6911 159.338 86.1738C160.58 86.3359 166.41 86.3461 167.576 86.2082C179.003 84.7946 183.257 78.6194 185.271 75.0266C188.216 69.7824 192.478 52.7428 197.367 29.1383C201.87 7.45439 185.413 4.16857 171.182 3.66856ZM93.3735 20.5633C89.8669 22.2183 78.9365 28.4764 76.7641 29.828L76.7572 29.8176C64.6477 37.3133 52.0071 48.3433 66.689 64.9346C82.657 82.9913 94.8148 95.659 99.9868 98.7484C103.518 100.862 110.276 104.106 120.899 99.6586C121.979 99.2103 127.037 96.2865 128.03 95.5315C137.029 88.67 137.65 81.2916 137.616 77.2092C137.574 71.1995 132.802 54.2875 125.323 31.3795C119.065 12.1988 105.3 14.8985 93.3735 20.5633ZM30.2636 76.4886C28.0638 79.6882 21.7711 90.6009 20.5642 92.849V92.8593C13.875 105.43 8.4926 121.315 29.5222 128.28C52.3968 135.851 69.2854 140.692 75.3056 140.761C79.4122 140.803 86.8842 140.216 93.839 131.031C94.5355 130.097 97.4491 125.035 97.9214 123.88C102.263 113.419 99.0766 106.73 96.9974 103.217C93.9424 98.038 81.3156 85.8187 63.3236 69.7721C48.2625 56.3424 37.7252 65.6035 30.2602 76.4886H30.2636ZM3.87219 156.084C3.56873 159.956 3.57562 172.554 3.66182 175.102L3.65155 175.085C4.15497 189.325 7.4374 205.779 29.1327 201.279C52.7347 196.397 69.7784 192.135 75.0264 189.177C78.6158 187.167 84.7878 182.902 86.2049 171.486C86.3497 170.324 86.3326 164.479 86.1704 163.249C84.6878 152.026 78.5847 147.833 75.0229 145.826C69.7784 142.882 52.7381 138.62 29.1326 133.731C9.37525 129.638 4.88239 142.923 3.87219 156.084ZM20.9228 238.375C22.602 241.871 28.912 252.767 30.2671 254.932L30.2602 254.949C37.8287 267.014 48.9245 279.602 65.4372 264.838C83.4017 248.774 96.0216 236.548 99.0766 231.369C101.176 227.821 104.387 221.056 99.8835 210.45C99.4248 209.371 96.4871 204.33 95.7251 203.344C88.8221 194.369 81.4329 193.794 77.3503 193.842C71.3301 193.921 54.4518 198.769 31.5774 206.368C12.4234 212.726 15.2093 226.47 20.9228 238.375ZM76.2814 300.61C79.4813 302.817 90.3736 309.126 92.6252 310.33C105.19 317.046 121.079 322.453 128.071 301.434C135.681 278.568 140.546 261.69 140.622 255.67C140.674 251.553 140.088 244.081 130.919 237.127C129.992 236.413 124.934 233.5 123.778 233.017C113.317 228.673 106.628 231.838 103.111 233.917C97.9214 236.986 85.6877 249.581 69.6164 267.538C56.1586 282.584 65.4028 293.128 76.2815 300.607L76.2814 300.61ZM156.094 327.149C159.962 327.445 172.565 327.445 175.11 327.356C189.34 326.852 205.797 323.573 201.298 301.882C196.405 278.278 192.154 261.231 189.195 255.991C187.185 252.401 182.93 246.23 171.503 244.809C170.348 244.668 164.497 244.681 163.266 244.843C152.042 246.33 147.839 252.429 145.836 255.994C142.891 261.238 138.629 278.278 133.736 301.882C129.644 321.639 142.932 326.128 156.094 327.149ZM240.999 308.775C243.247 307.596 254.184 301.338 257.394 299.155L257.384 299.165C268.304 291.745 277.61 281.243 264.235 266.131C248.274 248.078 236.109 235.403 230.937 232.314C227.431 230.224 220.755 227.014 210.28 231.303C209.125 231.769 204.056 234.665 203.122 235.362C193.909 242.264 193.281 249.736 193.315 253.853C193.357 259.873 198.129 276.775 205.608 299.683C212.487 320.749 228.4 315.422 240.999 308.775ZM302.802 251.401C304.15 249.226 310.456 238.334 312.132 234.827C317.839 222.922 320.604 209.168 301.443 202.827C278.562 195.252 261.673 190.422 255.653 190.346C251.577 190.294 244.192 190.88 237.289 199.855C236.53 200.841 233.596 205.889 233.144 206.968C228.651 217.567 231.868 224.342 233.968 227.88C237.033 233.069 249.657 245.278 267.642 261.324C284.172 276.071 295.254 263.473 302.802 251.398V251.401ZM327.355 171.182C327.442 168.631 327.442 156.035 327.142 152.163V152.156C326.125 138.996 321.642 125.701 301.874 129.804C278.279 134.693 261.239 138.944 255.994 141.899C252.426 143.913 246.329 148.105 244.843 159.332C244.685 160.573 244.667 166.41 244.809 167.565C246.229 178.995 252.402 183.246 255.991 185.27C261.232 188.215 278.279 192.476 301.874 197.369C323.569 201.869 326.855 185.412 327.355 171.182ZM308.394 89.3011C307.188 87.0495 300.881 76.1473 298.685 72.9475L298.674 72.9406C291.192 62.0625 280.658 52.8083 265.604 66.2586C247.64 82.3224 235.02 94.5453 231.965 99.7276C229.892 103.248 226.717 109.94 231.055 120.391C231.537 121.546 234.451 126.614 235.158 127.538C242.109 136.717 249.581 137.303 253.701 137.251C259.722 137.175 276.607 132.328 299.474 124.728C320.504 117.743 315.094 101.869 308.394 89.3011ZM113.434 165.5C113.434 136.751 136.743 113.436 165.5 113.436C194.25 113.436 217.566 136.751 217.566 165.5C217.566 194.249 194.257 217.564 165.5 217.564C136.743 217.564 113.434 194.249 113.434 165.5ZM127.42 165.5C127.42 186.532 144.47 203.579 165.5 203.579C186.533 203.579 203.58 186.529 203.58 165.5C203.58 144.468 186.53 127.421 165.5 127.421C144.467 127.421 127.42 144.471 127.42 165.5ZM121.196 245.909C114.619 242.097 106.197 244.334 102.38 250.908C100.656 253.887 100.245 260.073 99.7938 266.92C99.2455 275.209 98.6317 284.46 95.5457 290.146C99.9799 284.553 107.166 279.636 113.541 275.275C119.299 271.334 124.392 267.848 126.206 264.724C130.016 258.147 127.779 249.727 121.206 245.909H121.196ZM207.663 262.993C203.882 256.395 206.167 247.982 212.766 244.202L212.776 244.212C219.372 240.435 227.781 242.72 231.558 249.315C233.261 252.298 233.637 258.487 234.051 265.328C234.554 273.623 235.113 282.884 238.171 288.584C233.768 282.964 226.61 278.006 220.259 273.606C214.528 269.637 209.456 266.124 207.663 262.993ZM118.137 86.8393C124.736 83.0597 127.021 74.6462 123.241 68.0481C121.534 65.0657 116.386 61.6073 110.69 57.7802C103.797 53.1497 96.1044 47.9777 92.7356 42.4577C95.3458 49.0949 95.994 57.7733 96.5733 65.476C97.0939 72.4339 97.556 78.5952 99.349 81.7259C103.125 88.3284 111.54 90.6181 118.141 86.8393H118.137ZM68.2681 208.233C74.8499 204.426 83.2719 206.672 87.0842 213.25C90.8969 219.829 88.6537 228.253 82.0741 232.065C78.9537 233.869 72.8024 234.362 65.8544 234.917C58.1516 235.531 49.4693 236.227 42.8387 238.875C48.3418 235.479 53.476 227.752 58.0722 220.832C61.8651 215.119 65.2959 209.957 68.2681 208.233ZM243.961 117.836C247.774 124.413 256.195 126.658 262.777 122.853C265.901 121.043 269.393 115.947 273.338 110.192C277.7 103.824 282.617 96.6416 288.206 92.2111C282.524 95.2969 273.266 95.9003 264.977 96.4452C258.132 96.8933 251.946 97.3002 248.971 99.0207C242.391 102.833 240.148 111.257 243.961 117.836ZM66.1786 126.349C72.7605 130.153 81.1801 127.907 84.9912 121.329C88.8015 114.75 86.5588 106.329 79.9812 102.517C77.0056 100.793 70.8197 100.389 63.9787 99.9413C55.6861 99.3965 46.4316 98.7897 40.7491 95.7072C46.335 100.138 51.252 107.316 55.6172 113.685C59.5618 119.443 63.0546 124.539 66.1786 126.349ZM209.88 85.1394C216.457 88.9516 224.879 86.7139 228.696 80.14C230.503 77.0161 230.999 70.8651 231.558 63.9141C232.179 56.2149 232.879 47.5365 235.53 40.9061C232.13 46.4055 224.407 51.5325 217.486 56.1252C211.77 59.9179 206.601 63.3485 204.87 66.3242C201.058 72.9008 203.295 81.3225 209.87 85.1394H209.88ZM177.344 59.9454C177.346 67.549 171.183 73.7145 163.579 73.7164C155.978 73.7107 149.818 67.547 149.818 59.9454C149.818 56.5079 152.566 50.9464 155.611 44.7988C159.29 37.3581 163.4 29.0487 163.583 22.5873C164.61 29.6452 168.358 37.503 171.686 44.4746C174.686 50.7672 177.344 56.3389 177.344 59.9454ZM257.284 163.583C257.28 171.185 263.443 177.349 271.045 177.347C274.652 177.347 280.22 174.692 286.513 171.689C293.489 168.362 301.35 164.614 308.415 163.586C301.953 163.404 293.647 159.294 286.203 155.615C280.051 152.57 274.49 149.822 271.045 149.822C263.444 149.82 257.282 155.982 257.284 163.583ZM59.9515 181.278C70.5462 181.278 77.1678 169.809 71.8705 160.634C69.4121 156.376 64.8682 153.753 59.9515 153.753C56.5103 153.753 50.9486 156.504 44.7937 159.545C37.3528 163.228 29.0465 167.334 22.5882 167.517C29.6499 168.548 37.5114 172.296 44.4834 175.62C50.7795 178.619 56.3481 181.278 59.9548 181.278H59.9515ZM264.742 204.734C258.158 200.926 249.734 203.181 245.933 209.768C242.129 216.351 244.383 224.77 250.967 228.573C254.094 230.379 260.249 230.866 267.207 231.417C274.904 232.027 283.582 232.714 290.213 235.348C284.706 231.959 279.562 224.239 274.955 217.326C271.155 211.616 267.714 206.458 264.742 204.734ZM153.749 271.051C153.751 263.449 159.911 257.286 167.514 257.28C175.12 257.28 181.287 263.445 181.289 271.051C181.289 274.658 178.63 280.229 175.623 286.522C172.3 293.49 168.552 301.348 167.514 308.409C167.341 301.951 163.228 293.638 159.545 286.194C156.501 280.047 153.753 274.489 153.753 271.051H153.749Z" fill="#0F172A"/>
</svg>
